# Blender v2.82 (sub 7) OBJ File: 'test.blend'
# www.blender.org
mtllib test.mtl
g Cube_Cube.001
v -10.000000 -10.000000 -10.000000
v -10.000000 10.000000 -10.000000
v -10.000000 -10.000000 10.000000
v -10.000000 10.000000 10.000000
v 10.000000 -10.000000 -10.000000
v 10.000000 10.000000 -10.000000
v 10.000000 -10.000000 10.000000
v 10.000000 10.000000 10.000000
vt 0.000000 1.000000
vt 1.000000 1.000000
vt 1.000000 0.000000
vt 0.000000 0.000000
vt 0.000000 1.000000
vt 0.000000 0.000000
vt 1.000000 0.000000
vt 1.000000 1.000000
vt 0.000100 0.000100
vt 0.999900 0.000100
vt 0.999900 0.999900
vt 0.000100 0.999900
vt 1.500000 0.217214
vt 1.782786 0.500000
vt 1.500000 0.782786
vt 1.217214 0.500000
vn 0.0000 0.0000 1.0000
vn 0.0000 0.0000 -1.0000
vn 1.0000 0.0000 0.0000
vn 0.0000 -1.0000 0.0000
usemtl Material.001
s off
f 3/1/1 7/2/1 8/3/1 4/4/1
f 5/5/2 1/6/2 2/7/2 6/8/2
f 7/9/3 5/10/3 6/11/3 8/12/3
f 7/13/4 3/14/4 1/15/4 5/16/4
